<svg xmlns="http://www.w3.org/2000/svg" viewBox="0 0 720 1280"><defs><linearGradient id="g" x1="0" y1="0" x2="1" y2="1"><stop stop-color="#301425"/><stop offset=".6" stop-color="#0f1424"/><stop offset="1" stop-color="#704719"/></linearGradient></defs><rect width="720" height="1280" fill="url(#g)"/><circle cx="560" cy="210" r="130" fill="#ffd36a" opacity=".25"/><g transform="translate(360 330)"><ellipse cx="0" cy="50" rx="115" ry="130" fill="#efc49c"/><path d="M-125 44c-22-118 40-198 126-198 82 0 142 82 120 200-72-42-152-48-246-2z" fill="#e8c44f"/><path d="M-124 190q124-65 248 0l70 455q-194 88-388 0z" fill="#111827"/><path d="M-98 220q98 62 196 0l38 168q-136 60-272 0z" fill="#fff"/><path d="M-135 382h270L98 578H-98z" fill="#0b0c12"/><path d="M-110 640l-55 330" stroke="#efc49c" stroke-width="60" stroke-linecap="round"/><path d="M110 640l55 330" stroke="#efc49c" stroke-width="60" stroke-linecap="round"/><path d="M-170 930h92v230h-118zM78 930h92l26 230H78z" fill="#fff"/></g></svg>