<svg xmlns="http://www.w3.org/2000/svg" viewBox="0 0 360 560"><g transform="translate(180 70)"><ellipse cx="0" cy="40" rx="58" ry="66" fill="#efc49c"/><path d="M-60 40c-10-65 28-100 68-96 46 4 74 45 54 100-40-26-82-28-122-4z" fill="#e8c44f"/><path d="M-70 120q70-38 140 0l42 235q-112 44-224 0z" fill="#101522"/><path d="M-52 136q52 32 104 0l20 82q-72 32-144 0z" fill="#fff"/><path d="M-82 218h164L60 330H-60z" fill="#0d0d12"/><path d="M-104 145q-45 78-38 178" stroke="#efc49c" stroke-width="28" fill="none" stroke-linecap="round"/><path d="M104 145q45 78 38 178" stroke="#efc49c" stroke-width="28" fill="none" stroke-linecap="round"/><path d="M-55 350l-35 145" stroke="#efc49c" stroke-width="35" stroke-linecap="round"/><path d="M55 350l35 145" stroke="#efc49c" stroke-width="35" stroke-linecap="round"/><path d="M-96 480h55v62h-66zM41 480h55l11 62H41z" fill="#fff"/></g></svg>