<svg xmlns="http://www.w3.org/2000/svg" viewBox="0 0 720 1280"><rect width="720" height="1280" fill="#121724"/><path d="M0 850h720v430H0z" fill="#153624"/><g stroke="#fff" stroke-width="7" opacity=".35" fill="none"><path d="M90 390h540v420H90z"/><path d="M90 500h540M90 610h540M90 720h540M198 390v420M306 390v420M414 390v420M522 390v420"/></g><g transform="translate(360 350)"><ellipse cx="0" cy="45" rx="105" ry="125" fill="#efc49c"/><path d="M-108 40c-25-112 33-190 116-190 70 0 130 76 106 190-78-48-151-49-222 0z" fill="#e8c44f"/><path d="M-118 180q118-60 236 0l70 430q-188 82-376 0z" fill="#101522"/><path d="M-90 205q90 54 180 0l34 145q-124 54-248 0z" fill="#fafafa"/><path d="M-120 340h240L92 520H-92z" fill="#0d0d12"/><path d="M-176 218q-45 130-20 300" stroke="#efc49c" stroke-width="42" fill="none" stroke-linecap="round"/><path d="M176 218q45 130 20 300" stroke="#efc49c" stroke-width="42" fill="none" stroke-linecap="round"/><path d="M-88 600l-55 330" stroke="#efc49c" stroke-width="54" stroke-linecap="round"/><path d="M88 600l55 330" stroke="#efc49c" stroke-width="54" stroke-linecap="round"/><path d="M-148 900h80v200h-104zM68 900h80l24 200H68z" fill="#f5f5f8"/></g></svg>